<svg id="Layer_1" data-name="Layer 1" xmlns="http://www.w3.org/2000/svg" viewBox="0 0 373.11 430.96"><defs><style>.cls-1{fill:#d4df75;}.cls-2{fill:#14a195;}.cls-3{fill:#65b679;}</style></defs><path class="cls-1" d="M67.31,430.86c-.61,0-.64-.41-.65-.85,0-1.16.07-2.31.07-3.47.25-37.23-.41-74.46.34-111.7a176.16,176.16,0,0,1,23.84-86.23,180.07,180.07,0,0,1,60.77-63,174.23,174.23,0,0,1,41.49-19c14-4.29,28.29-7.35,42.34-11.39,7.4-2.13,14.91-3.86,22.18-6.44,6.18-1.27,12.08-3.49,18.08-5.36q41.69-13,82.06-29.6c.45-.18,1.36-1.21,1.35.4a4.52,4.52,0,0,0-.85,1c-7,15.56-14.21,31-22.25,46.05-8.21,15.36-17,30.4-26.42,45A774.12,774.12,0,0,1,250,266.55c-11.66,13.74-23.64,27.18-36.13,40.15-12.32,12.8-24.93,25.33-37.92,37.46-6,5.63-12.11,11.2-18.33,16.62q-13.92,12.15-28.29,23.79c-10.61,8.6-21.32,17.07-32.26,25.25C87.33,417.1,77.26,423.9,67.31,430.86Z"/><path class="cls-2" d="M257.69,128.82c-7.27,2.58-14.78,4.31-22.18,6.44-14,4-28.36,7.1-42.34,11.39a174.23,174.23,0,0,0-41.49,19,180.07,180.07,0,0,0-60.77,63,176.16,176.16,0,0,0-23.84,86.23c-.75,37.24-.09,74.47-.34,111.7,0,1.16,0,2.31-.07,3.47C61.44,419.33,56.19,408.67,51,398c-11.66-24.15-23.43-48.26-34.86-72.52A172,172,0,0,1,1.53,274.18c-4.07-31,.06-61,11.49-89.9a177.58,177.58,0,0,1,33.31-53.6c8-9,17.13-16.75,26.34-24.44A1089,1089,0,0,0,160.3,24.46c7.69-8,15.07-16.3,22.59-24.46.2.06.4.05.47.15,12.29,16.54,25.29,32.56,36.48,49.9,15.68,24.29,28.6,49.91,37.52,77.48C257.5,128,257.58,128.39,257.69,128.82Z"/><path class="cls-3" d="M67.31,430.86c10-7,20-13.76,29.75-21,10.94-8.18,21.65-16.65,32.26-25.25q14.37-11.64,28.29-23.79c6.22-5.42,12.3-11,18.33-16.62,13-12.13,25.6-24.66,37.92-37.46,12.49-13,24.47-26.41,36.13-40.15a774.12,774.12,0,0,0,59.67-80.27c9.45-14.6,18.21-29.64,26.42-45,8-15,15.25-30.49,22.25-46a4.52,4.52,0,0,1,.85-1c4,20.11,8.57,40.13,11,60.5,2.37,19.69,3.57,39.46,2.52,59.32a281,281,0,0,1-7.58,53.45c-6.38,25.59-16.5,49.52-31.69,71.16-17.52,25-40,44.37-66.67,59-22.76,12.47-47.1,20.52-72.44,25.78a365.59,365.59,0,0,1-61.52,7.09C111,431.3,89.15,430.76,67.31,430.86Z"/></svg>